
<svg width="32" height="32" viewBox="0 0 32 32" fill="none" xmlns="http://www.w3.org/2000/svg">
  <rect width="32" height="32" rx="8" fill="#14b8a6"/>
  <path d="M16 8C11.582 8 8 11.582 8 16C8 20.418 11.582 24 16 24C20.418 24 24 20.418 24 16C24 11.582 20.418 8 16 8ZM16 22C12.686 22 10 19.314 10 16C10 12.686 12.686 10 16 10C19.314 10 22 12.686 22 16C22 19.314 19.314 22 16 22Z" fill="white"/>
  <path d="M16 12C15.4477 12 15 12.4477 15 13V16C15 16.5523 15.4477 17 16 17H19C19.5523 17 20 16.5523 20 16C20 15.4477 19.5523 15 19 15H17V13C17 12.4477 16.5523 12 16 12Z" fill="white"/>
</svg>
